<?xml version="1.0" encoding="iso-8859-1"?>
<!-- Generator: Adobe Illustrator 19.0.0, SVG Export Plug-In . SVG Version: 6.00 Build 0)  -->
<svg fill="#ffffff" version="1.1" id="Capa_1" xmlns="http://www.w3.org/2000/svg" xmlns:xlink="http://www.w3.org/1999/xlink" x="0px" y="0px"
	 viewBox="0 0 470 470" style="enable-background:new 0 0 470 470;" xml:space="preserve">
<g>
	<path d="M123.431,225.992c-9.486-9.486-23.904-11.096-35.074-4.844v-97.677c0-4.961-1.242-9.636-3.426-13.737
		c1.315-0.391,2.69-0.596,4.093-0.596c7.903,0,14.333,6.429,14.333,14.333v72.109c0,4.142,3.358,7.5,7.5,7.5s7.5-3.358,7.5-7.5
		v-72.109c0-16.174-13.159-29.333-29.333-29.333c-5.35,0-10.508,1.445-15.01,4.133c-4.39-2.621-9.516-4.133-14.99-4.133
		c-16.174,0-29.333,13.158-29.333,29.339l0.122,137.644c0.005,6.281,2.331,15.148,5.409,20.625c0.05,0.09,0.103,0.178,0.157,0.266
		l86.394,139.901c1.794,3.271,3.411,9.494,3.411,13.162V462.5c0,4.142,3.358,7.5,7.5,7.5s7.5-3.358,7.5-7.5v-27.425
		c0-6.283-2.322-15.153-5.401-20.631c-0.051-0.09-0.103-0.178-0.157-0.266L48.233,274.278c-1.795-3.273-3.416-9.499-3.419-13.169
		l-0.122-137.637c0-7.903,6.43-14.333,14.333-14.333s14.333,6.429,14.333,14.333v123.262c0,0.176,0.014,0.349,0.026,0.522
		c0.129,7.336,2.979,14.633,8.565,20.219l67.177,67.176c2.929,2.929,7.678,2.929,10.606,0c2.929-2.929,2.929-7.677,0-10.606
		l-67.177-67.176c-5.588-5.588-5.588-14.681,0-20.269s14.681-5.588,20.27,0l82.656,82.656c9.226,9.226,17.021,28.044,17.021,41.092
		V462.5c0,4.142,3.358,7.5,7.5,7.5s7.5-3.358,7.5-7.5V360.347c0-16.982-9.406-39.691-21.415-51.699L123.431,225.992z"/>
	<path d="M410.976,94.139c-5.474,0-10.6,1.511-14.99,4.133c-4.501-2.688-9.66-4.133-15.01-4.133
		c-16.174,0-29.333,13.158-29.333,29.333v72.109c0,4.142,3.358,7.5,7.5,7.5s7.5-3.358,7.5-7.5v-72.109
		c0-7.903,6.43-14.333,14.333-14.333c1.403,0,2.779,0.205,4.093,0.596c-2.183,4.101-3.426,8.776-3.426,13.737v97.677
		c-11.169-6.251-25.587-4.642-35.074,4.845l-82.656,82.656c-12.008,12.008-21.415,34.717-21.415,51.699V462.5
		c0,4.142,3.358,7.5,7.5,7.5s7.5-3.358,7.5-7.5V360.347c0-13.048,7.795-31.866,17.021-41.092l82.656-82.656
		c5.588-5.588,14.681-5.588,20.27,0c5.588,5.588,5.588,14.681,0,20.27l-67.177,67.176c-2.929,2.929-2.929,7.677,0,10.606
		c2.929,2.929,7.678,2.929,10.606,0l67.177-67.176c5.586-5.586,8.435-12.883,8.565-20.219c0.012-0.173,0.026-0.346,0.026-0.522
		V123.471c0-7.903,6.43-14.333,14.333-14.333s14.333,6.429,14.333,14.326l-0.122,137.644c-0.003,3.67-1.625,9.896-3.419,13.169
		l-86.393,139.901c-0.054,0.087-0.106,0.176-0.157,0.266c-3.079,5.478-5.401,14.348-5.401,20.631V462.5c0,4.142,3.358,7.5,7.5,7.5
		s7.5-3.358,7.5-7.5v-27.425c0-3.668,1.617-9.89,3.411-13.162l86.394-139.901c0.054-0.087,0.106-0.176,0.157-0.266
		c3.078-5.477,5.404-14.343,5.409-20.625l0.122-137.65C440.308,107.297,427.149,94.139,410.976,94.139z"/>
	<path d="M352.601,66.253C352.601,29.721,322.879,0,286.348,0c-20.152,0-39.015,9.192-51.476,24.567
		C222.811,9.595,204.331,0,183.652,0c-36.532,0-66.253,29.721-66.253,66.253c0,14.55,4.631,28.361,13.393,39.94l98.227,129.832
		C230.437,237.899,232.65,239,235,239s4.563-1.101,5.981-2.975l98.227-129.832C347.969,94.614,352.601,80.803,352.601,66.253z
		 M327.246,97.143L235,219.069L142.754,97.142c-6.774-8.952-10.354-19.634-10.354-30.889c0-28.261,22.992-51.253,51.253-51.253
		c27.984,0,50.75,22.766,50.75,50.75c0,4.142,3.358,7.5,7.5,7.5s7.5-3.358,7.5-7.5c0-9.79-2.15-19.086-6.004-27.442
		C252.82,23.847,268.966,15,286.348,15c28.261,0,51.253,22.992,51.253,51.253C337.601,77.509,334.02,88.19,327.246,97.143z"/>
</g>
<g>
</g>
<g>
</g>
<g>
</g>
<g>
</g>
<g>
</g>
<g>
</g>
<g>
</g>
<g>
</g>
<g>
</g>
<g>
</g>
<g>
</g>
<g>
</g>
<g>
</g>
<g>
</g>
<g>
</g>
</svg>
