<?xml version="1.0" encoding="iso-8859-1"?>
<!-- Generator: Adobe Illustrator 19.0.0, SVG Export Plug-In . SVG Version: 6.00 Build 0)  -->
<svg fill="#ffffff" version="1.1" id="Layer_1" xmlns="http://www.w3.org/2000/svg" xmlns:xlink="http://www.w3.org/1999/xlink" x="0px" y="0px"
	 viewBox="0 0 402 402" style="enable-background:new 0 0 402 402;" xml:space="preserve">
<g>
	<g>
		<path d="M394.5,280h-15.149V104.5c0-17.92-14.579-32.5-32.5-32.5h-291.7c-17.921,0-32.5,14.58-32.5,32.5V280H7.5
			c-4.143,0-7.5,3.358-7.5,7.5C0,310.935,19.065,330,42.5,330h317c23.435,0,42.5-19.065,42.5-42.5
			C402,283.358,398.643,280,394.5,280z M37.651,104.5c0-9.649,7.851-17.5,17.5-17.5H346.85c9.649,0,17.5,7.851,17.5,17.5V280h-5
			V99.5c0-4.142-3.357-7.5-7.5-7.5H50.151c-4.143,0-7.5,3.358-7.5,7.5V280h-5V104.5z M344.351,107v173h-286.7V107H344.351z
			 M359.5,315h-317c-12.564,0-23.188-8.47-26.461-20h142.489c2.6,4.479,7.437,7.506,12.978,7.506h58.987
			c5.541,0,10.379-3.026,12.978-7.506h142.49C382.688,306.53,372.064,315,359.5,315z"/>
	</g>
</g>
<g>
</g>
<g>
</g>
<g>
</g>
<g>
</g>
<g>
</g>
<g>
</g>
<g>
</g>
<g>
</g>
<g>
</g>
<g>
</g>
<g>
</g>
<g>
</g>
<g>
</g>
<g>
</g>
<g>
</g>
</svg>
