<?xml version="1.0" encoding="iso-8859-1"?>
<!-- Generator: Adobe Illustrator 19.0.0, SVG Export Plug-In . SVG Version: 6.00 Build 0)  -->
<svg width="40px" height="40px" fill="#fff" version="1.1" id="Layer_1" xmlns="http://www.w3.org/2000/svg" xmlns:xlink="http://www.w3.org/1999/xlink" x="0px" y="0px"
	 viewBox="0 0 512.836 512.836" style="enable-background:new 0 0 512.836 512.836;" xml:space="preserve">
<g>
	<g>
		<g>
			<path d="M96.025,107.084c29.461,0,53.333-23.872,53.333-53.333c0-29.461-23.872-53.333-53.333-53.333
				c-29.461,0-53.333,23.872-53.333,53.333C42.691,83.212,66.563,107.084,96.025,107.084z"/>
			<path d="M510.852,224.14c-3.2-25.515-29.269-42.901-54.251-33.408c-8.853,3.413-19.691-1.749-23.787-11.115
				c-4.971-11.413-11.115-22.315-18.197-32.448c-6.315-8.981-5.141-20.757,2.667-27.349c9.429-7.979,14.699-19.691,14.464-32.171
				c-0.256-12.651-6.101-24.341-16.043-32.064c-16.32-12.672-34.112-23.211-52.885-31.317c-5.12-2.219-10.517-3.349-16.021-3.349
				c-19.797,0-36.501,14.336-39.701,34.091c-1.643,10.155-10.539,17.088-21.419,15.893c-11.947-1.28-24.341-1.28-36.352,0
				c-10.475,1.237-19.733-5.739-21.397-15.915c-3.157-19.648-19.84-33.92-39.573-33.92c-4.48,0-8.896,0.747-13.163,2.219
				c-5.227,1.792-8.235,7.296-6.891,12.651c1.643,6.656,2.411,12.309,2.411,17.813c0,4.864-0.64,9.941-2.069,16
				c-0.192,0.832-0.277,1.664-0.277,2.496l0.469,46.4c0.043,3.008,1.344,5.867,3.584,7.851
				c14.763,13.141,24.149,31.36,26.411,51.307l1.259,10.944c0.469,4.032,3.179,7.467,6.997,8.832
				c3.883,1.344,8.107,0.448,11.029-2.368c16.064-15.573,37.099-24.128,59.243-24.128c47.061,0,85.333,38.272,85.333,85.333
				s-38.272,85.333-85.333,85.333c-18.475,0-36.288-6.144-51.52-17.771c-2.709-2.048-6.187-2.709-9.408-1.771
				c-3.243,0.917-5.845,3.328-7.04,6.485c-2.667,7.061-6.165,13.056-10.432,17.835c-3.755,4.203-8.085,7.765-12.885,10.624
				c-3.008,1.771-4.928,4.907-5.205,8.405l-8.363,113.6c0,5.184,3.712,9.6,8.811,10.496c2.304,0.427,4.651,0.619,6.933,0.619
				c19.797,0,36.48-14.336,39.68-34.069c1.664-10.176,10.603-17.003,21.419-15.915c11.989,1.28,24.384,1.28,36.352,0
				c10.56-1.109,19.755,5.739,21.397,15.915c3.2,19.733,19.925,34.069,39.701,34.069c5.504,0,10.901-1.131,16.021-3.349
				c18.795-8.107,36.587-18.645,52.885-31.317c9.941-7.723,15.787-19.413,16.043-32.064c0.256-12.48-5.013-24.213-14.464-32.171
				c-7.808-6.613-8.981-18.368-2.667-27.371c7.083-10.112,13.205-21.013,18.197-32.427c4.096-9.387,14.144-14.827,24.021-11.029
				c23.787,9.088,50.816-7.957,54.016-33.472c1.323-10.368,1.984-20.971,1.984-31.488
				C512.836,245.09,512.174,234.487,510.852,224.14z"/>
			<path d="M183.001,332.364c6.784-7.552,9.963-17.877,8.789-28.224l-14.144-123.925c-3.349-29.525-26.752-51.797-54.4-51.797
				H68.782c-27.648,0-51.051,22.272-54.4,51.819L0.238,304.14c-1.173,10.368,2.027,20.651,8.768,28.224
				c5.803,6.528,13.547,10.304,21.909,10.773L42.691,502.54c0.427,5.547,5.056,9.877,10.645,9.877h85.333
				c5.589,0,10.219-4.309,10.645-9.877l11.776-159.403C169.475,342.668,177.198,338.871,183.001,332.364z"/>
		</g>
	</g>
</g>
<g>
</g>
<g>
</g>
<g>
</g>
<g>
</g>
<g>
</g>
<g>
</g>
<g>
</g>
<g>
</g>
<g>
</g>
<g>
</g>
<g>
</g>
<g>
</g>
<g>
</g>
<g>
</g>
<g>
</g>
</svg>
